<svg width="583" height="156" viewBox="0 0 583 156" fill="none" xmlns="http://www.w3.org/2000/svg">
<path d="M164.945 38.114C164.945 43.5956 165.141 48.1423 165.533 51.7538C165.925 55.365 166.66 58.2508 167.737 60.4112C168.815 62.5716 170.35 64.1842 172.343 65.2483C174.368 66.3123 176.98 67.0061 180.181 67.3285C183.382 67.651 187.301 67.8121 191.939 67.8121H209.673C214.343 67.8121 218.263 67.6509 221.431 67.3285C224.631 67.0061 227.228 66.3124 229.22 65.2483C231.245 64.1842 232.796 62.5716 233.874 60.4112C234.952 58.2508 235.687 55.3651 236.079 51.7538C236.471 48.1423 236.667 43.5956 236.667 38.114V0H246.073V38.114C246.073 46.0783 245.534 52.5434 244.457 57.5091C243.412 62.4748 241.55 66.2802 238.872 68.9243C236.226 71.5685 232.535 73.3738 227.799 74.3412C223.064 75.3408 217.021 75.8408 209.673 75.8408H191.939C184.59 75.8408 178.548 75.3408 173.812 74.3412C169.076 73.3738 165.369 71.5684 162.691 68.9243C160.046 66.2802 158.184 62.4748 157.106 57.5091C156.061 52.5434 155.539 46.0783 155.539 38.114V0H164.945V38.114Z" fill="white"/>
<path fill-rule="evenodd" clip-rule="evenodd" d="M50.3624 0C57.7108 8.05181e-06 63.6222 0.322224 68.0966 0.967118C72.6037 1.61203 76.0167 2.72467 78.3356 4.30469C80.6544 5.88467 82.2218 8.04498 83.0384 10.7857C83.8549 13.5265 84.2632 16.9931 84.2632 21.1849V23.1199C84.2632 26.9892 83.7897 30.3265 82.8426 33.1318C81.9282 35.9047 80.1484 38.1619 77.5031 39.9031C74.8576 41.6121 70.9381 42.8216 65.7452 43.531L82.1076 74.2931H72.702L56.6815 44.2077C56.0284 44.24 55.3425 44.2567 54.6241 44.2567H9.40646V74.2931H0V0H50.3624ZM9.40646 36.2271H50.9992C56.584 36.2271 60.9769 36.0502 64.1776 35.6955C67.4109 35.3085 69.779 34.6475 71.2814 33.7124C72.8163 32.7773 73.7963 31.455 74.2208 29.7461C74.6454 28.0372 74.8576 25.8284 74.8576 23.1199V21.1849C74.8576 18.1218 74.5634 15.7035 73.9755 13.93C73.3876 12.1565 72.2116 10.8502 70.448 10.0119C68.6843 9.17353 66.0549 8.64178 62.5604 8.41607C59.0658 8.15813 54.3955 8.02874 48.5495 8.02874H9.40646V36.2271Z" fill="white"/>
<path d="M403.718 62.8298H403.817V0H413.222V74.2931H403.424L327.833 10.9309H327.734V74.2931H318.328V0H328.126L403.718 62.8298Z" fill="white"/>
<path fill-rule="evenodd" clip-rule="evenodd" d="M582.332 74.2931H571.358L561.952 57.2677H502.379L492.973 74.2931H481.999L525.895 0H538.436L582.332 74.2931ZM507.082 49.5284H557.248L532.165 6.19077L507.082 49.5284Z" fill="white"/>
<path d="M29.0454 117.418C32.5259 117.418 35.4578 117.578 37.8401 117.895C40.2392 118.197 42.1653 118.807 43.6183 119.727C45.0883 120.632 46.1523 121.973 46.8113 123.75C47.4703 125.511 47.8005 127.852 47.8005 130.771H42.9341C42.9341 128.471 42.7143 126.686 42.2751 125.417C41.8358 124.132 41.0924 123.203 40.0451 122.632C39.0144 122.061 37.6027 121.711 35.8117 121.584C34.0208 121.441 31.7654 121.369 29.0454 121.369H18.8313C16.4151 121.369 14.3789 121.441 12.723 121.584C11.0674 121.711 9.71583 122.02 8.66831 122.512C7.63763 122.988 6.8434 123.75 6.28581 124.798C5.7452 125.845 5.37302 127.272 5.17027 129.081C4.96752 130.89 4.86634 133.191 4.86633 135.984V136.936C4.86634 139.633 4.96752 141.871 5.17027 143.648C5.37304 145.425 5.74517 146.845 6.28581 147.908C6.84339 148.971 7.63769 149.764 8.66831 150.288C9.71587 150.811 11.0673 151.153 12.723 151.312C14.3789 151.47 16.4151 151.549 18.8313 151.549H29.0454C31.7654 151.549 34.0208 151.494 35.8117 151.383C37.6027 151.272 39.0144 150.947 40.0451 150.407C41.0925 149.868 41.8358 148.971 42.2751 147.718C42.7144 146.448 42.9341 144.671 42.9341 142.386H47.8005C47.8005 145.305 47.4702 147.638 46.8113 149.383C46.1524 151.129 45.0882 152.446 43.6183 153.334C42.1653 154.207 40.2392 154.787 37.8401 155.072C35.4578 155.358 32.5259 155.5 29.0454 155.5H18.8313C15.0297 155.5 11.9037 155.254 9.45378 154.762C7.00404 154.286 5.08616 153.398 3.70068 152.097C2.33206 150.796 1.3681 148.923 0.810515 146.48C0.269855 144.036 1.03284e-05 140.855 0 136.936V135.984C6.42476e-06 132.747 0.168698 130.034 0.506572 127.844C0.844498 125.639 1.42823 123.845 2.25614 122.465C3.08407 121.085 4.20741 120.029 5.62672 119.299C7.06281 118.569 8.86222 118.077 11.0247 117.824C13.1874 117.554 15.7899 117.418 18.8313 117.418H29.0454Z" fill="white"/>
<path d="M382.898 117.418C386.379 117.418 389.311 117.578 391.693 117.895C394.092 118.197 396.019 118.807 397.472 119.727C398.942 120.632 400.006 121.973 400.665 123.75C401.324 125.511 401.653 127.852 401.653 130.771H396.788C396.788 128.471 396.568 126.686 396.129 125.417C395.69 124.131 394.946 123.203 393.898 122.632C392.867 122.061 391.457 121.711 389.666 121.584C387.875 121.441 385.619 121.369 382.898 121.369H372.685C370.269 121.369 368.233 121.441 366.577 121.584C364.921 121.711 363.569 122.02 362.521 122.512C361.491 122.988 360.696 123.75 360.139 124.798C359.598 125.845 359.227 127.273 359.024 129.081C358.821 130.89 358.719 133.191 358.719 135.984V136.936C358.719 139.633 358.821 141.871 359.024 143.648C359.227 145.425 359.598 146.845 360.139 147.908C360.696 148.971 361.491 149.764 362.521 150.288C363.569 150.811 364.921 151.153 366.577 151.312C368.233 151.47 370.269 151.549 372.685 151.549H382.898C385.619 151.549 387.875 151.494 389.666 151.383C391.456 151.272 392.867 150.947 393.898 150.407C394.946 149.868 395.69 148.971 396.129 147.718C396.568 146.448 396.788 144.671 396.788 142.386H401.653C401.653 145.305 401.324 147.638 400.665 149.383C400.006 151.128 398.942 152.446 397.472 153.334C396.019 154.207 394.092 154.787 391.693 155.072C389.311 155.358 386.379 155.5 382.898 155.5H372.685C368.884 155.5 365.757 155.254 363.307 154.762C360.857 154.286 358.939 153.398 357.554 152.097C356.185 150.796 355.222 148.923 354.664 146.48C354.124 144.036 353.854 140.855 353.854 136.936V135.984C353.854 132.747 354.023 130.034 354.361 127.844C354.698 125.639 355.281 123.845 356.109 122.465C356.937 121.085 358.06 120.029 359.48 119.299C360.916 118.569 362.716 118.077 364.879 117.824C367.041 117.554 369.644 117.418 372.685 117.418H382.898Z" fill="white"/>
<path d="M476.249 136.936C476.249 139.633 476.35 141.871 476.552 143.648C476.755 145.425 477.136 146.845 477.693 147.908C478.251 148.971 479.045 149.764 480.076 150.288C481.123 150.811 482.475 151.153 484.13 151.312C485.786 151.47 487.814 151.549 490.213 151.549H499.388C501.804 151.549 503.832 151.47 505.47 151.312C507.126 151.153 508.471 150.811 509.501 150.288C510.549 149.764 511.351 148.971 511.909 147.908C512.466 146.845 512.847 145.425 513.049 143.648C513.252 141.871 513.353 139.633 513.353 136.936V118.181H518.22V136.936C518.22 140.855 517.941 144.036 517.383 146.48C516.842 148.923 515.879 150.796 514.494 152.097C513.125 153.398 511.216 154.286 508.766 154.762C506.316 155.254 503.19 155.5 499.388 155.5H490.213C486.412 155.5 483.286 155.254 480.836 154.762C478.386 154.286 476.468 153.398 475.083 152.097C473.714 150.796 472.751 148.923 472.194 146.48C471.653 144.036 471.382 140.855 471.382 136.936V118.181H476.249V136.936Z" fill="white"/>
<path d="M89.1016 136.079L106.945 118.181H113.433L91.5353 139.506V154.739H86.669V139.506L64.7711 118.181H71.2595L89.1016 136.079Z" fill="white"/>
<path fill-rule="evenodd" clip-rule="evenodd" d="M162.946 118.181C165.886 118.181 168.294 118.443 170.17 118.966C172.062 119.474 173.457 120.386 174.352 121.703C175.265 123.004 175.72 124.853 175.72 127.249C175.72 129.407 175.188 131.192 174.123 132.604C173.059 134.016 171.428 134.794 169.232 134.937C172.104 135.207 174.174 136.174 175.442 137.84C176.709 139.49 177.343 141.569 177.343 144.076C177.343 146.25 177.072 148.035 176.531 149.431C176.007 150.828 175.12 151.914 173.87 152.692C172.619 153.453 170.921 153.985 168.776 154.287C166.647 154.588 163.986 154.739 160.792 154.739H131.925V118.181H162.946ZM136.791 150.931H160.792C163.107 150.931 165.017 150.876 166.521 150.764C168.041 150.653 169.232 150.384 170.094 149.955C170.972 149.527 171.589 148.852 171.944 147.932C172.298 146.995 172.476 145.71 172.476 144.076C172.476 142.394 172.138 141.085 171.462 140.149C170.803 139.213 169.874 138.538 168.674 138.126C167.492 137.713 166.115 137.46 164.543 137.365C162.972 137.269 161.282 137.221 159.474 137.221H136.791V150.931ZM136.791 133.414H159.474C162.093 133.414 164.239 133.326 165.912 133.152C167.584 132.977 168.826 132.461 169.637 131.604C170.448 130.747 170.854 129.296 170.854 127.249C170.854 125.646 170.609 124.472 170.119 123.726C169.646 122.981 168.835 122.505 167.686 122.298C166.537 122.092 164.957 121.988 162.946 121.988H136.791V133.414Z" fill="white"/>
<path d="M234.054 121.988H200.7V134.175H232.66V137.983H200.7V150.931H234.763V154.739H195.834V118.181H234.054V121.988Z" fill="white"/>
<path fill-rule="evenodd" clip-rule="evenodd" d="M277.789 118.181C281.591 118.181 284.649 118.339 286.964 118.656C289.296 118.974 291.061 119.522 292.261 120.299C293.46 121.077 294.271 122.14 294.693 123.488C295.116 124.837 295.327 126.543 295.327 128.605V129.558C295.327 131.462 295.082 133.103 294.592 134.484C294.119 135.848 293.198 136.96 291.829 137.817C290.461 138.658 288.433 139.252 285.747 139.601L294.212 154.739H289.345L281.058 139.935C280.721 139.95 280.366 139.958 279.994 139.958H256.6V154.739H251.734V118.181H277.789ZM256.6 136.007H278.118C281.007 136.007 283.28 135.921 284.936 135.746C286.608 135.556 287.834 135.23 288.611 134.77C289.405 134.31 289.912 133.659 290.132 132.818C290.352 131.977 290.461 130.89 290.461 129.558V128.605C290.461 127.098 290.309 125.908 290.005 125.035C289.7 124.162 289.092 123.52 288.18 123.108C287.267 122.695 285.908 122.433 284.1 122.322C282.292 122.195 279.876 122.132 276.851 122.132H256.6V136.007Z" fill="white"/>
<path d="M425.112 150.931H455.932V154.739H420.247V118.181H425.112V150.931Z" fill="white"/>
<path fill-rule="evenodd" clip-rule="evenodd" d="M567.935 118.181C570.875 118.181 573.284 118.443 575.159 118.966C577.051 119.474 578.446 120.386 579.341 121.703C580.254 123.004 580.71 124.853 580.71 127.249C580.71 129.407 580.177 131.192 579.112 132.604C578.048 134.016 576.417 134.794 574.221 134.937C577.094 135.207 579.163 136.174 580.431 137.84C581.698 139.491 582.332 141.569 582.332 144.076C582.332 146.25 582.061 148.035 581.52 149.431C580.996 150.827 580.11 151.914 578.86 152.692C577.609 153.453 575.911 153.985 573.765 154.287C571.636 154.588 568.975 154.739 565.782 154.739H536.914V118.181H567.935ZM541.78 150.931H565.782C568.096 150.931 570.006 150.876 571.51 150.764C573.03 150.653 574.221 150.384 575.083 149.955C575.961 149.527 576.578 148.852 576.933 147.932C577.287 146.995 577.465 145.71 577.465 144.076C577.465 142.394 577.127 141.085 576.451 140.149C575.792 139.213 574.863 138.538 573.663 138.126C572.481 137.713 571.104 137.46 569.532 137.365C567.961 137.269 566.271 137.221 564.463 137.221H541.78V150.931ZM541.78 133.414H564.463C567.082 133.414 569.228 133.326 570.901 133.152C572.573 132.977 573.815 132.461 574.626 131.604C575.437 130.747 575.843 129.296 575.843 127.249C575.843 125.646 575.598 124.472 575.108 123.726C574.635 122.981 573.824 122.505 572.675 122.298C571.526 122.092 569.946 121.988 567.935 121.988H541.78V133.414Z" fill="white"/>
<path d="M164.945 38.114C164.945 43.5956 165.141 48.1423 165.533 51.7538C165.925 55.365 166.66 58.2508 167.737 60.4112C168.815 62.5716 170.35 64.1842 172.343 65.2483C174.368 66.3123 176.98 67.0061 180.181 67.3285C183.382 67.651 187.301 67.8121 191.939 67.8121H209.673C214.343 67.8121 218.263 67.6509 221.431 67.3285C224.631 67.0061 227.228 66.3124 229.22 65.2483C231.245 64.1842 232.796 62.5716 233.874 60.4112C234.952 58.2508 235.687 55.3651 236.079 51.7538C236.471 48.1423 236.667 43.5956 236.667 38.114V0H246.073V38.114C246.073 46.0783 245.534 52.5434 244.457 57.5091C243.412 62.4748 241.55 66.2802 238.872 68.9243C236.226 71.5685 232.535 73.3738 227.799 74.3412C223.064 75.3408 217.021 75.8408 209.673 75.8408H191.939C184.59 75.8408 178.548 75.3408 173.812 74.3412C169.076 73.3738 165.369 71.5684 162.691 68.9243C160.046 66.2802 158.184 62.4748 157.106 57.5091C156.061 52.5434 155.539 46.0783 155.539 38.114V0H164.945V38.114Z" stroke="#5B5B5B"/>
<path fill-rule="evenodd" clip-rule="evenodd" d="M50.3624 0C57.7108 8.05181e-06 63.6222 0.322224 68.0966 0.967118C72.6037 1.61203 76.0167 2.72467 78.3356 4.30469C80.6544 5.88467 82.2218 8.04498 83.0384 10.7857C83.8549 13.5265 84.2632 16.9931 84.2632 21.1849V23.1199C84.2632 26.9892 83.7897 30.3265 82.8426 33.1318C81.9282 35.9047 80.1484 38.1619 77.5031 39.9031C74.8576 41.6121 70.9381 42.8216 65.7452 43.531L82.1076 74.2931H72.702L56.6815 44.2077C56.0284 44.24 55.3425 44.2567 54.6241 44.2567H9.40646V74.2931H0V0H50.3624ZM9.40646 36.2271H50.9992C56.584 36.2271 60.9769 36.0502 64.1776 35.6955C67.4109 35.3085 69.779 34.6475 71.2814 33.7124C72.8163 32.7773 73.7963 31.455 74.2208 29.7461C74.6454 28.0372 74.8576 25.8284 74.8576 23.1199V21.1849C74.8576 18.1218 74.5634 15.7035 73.9755 13.93C73.3876 12.1565 72.2116 10.8502 70.448 10.0119C68.6843 9.17353 66.0549 8.64178 62.5604 8.41607C59.0658 8.15813 54.3955 8.02874 48.5495 8.02874H9.40646V36.2271Z" stroke="#5B5B5B"/>
<path d="M403.718 62.8298H403.817V0H413.222V74.2931H403.424L327.833 10.9309H327.734V74.2931H318.328V0H328.126L403.718 62.8298Z" stroke="#5B5B5B"/>
<path fill-rule="evenodd" clip-rule="evenodd" d="M582.332 74.2931H571.358L561.952 57.2677H502.379L492.973 74.2931H481.999L525.895 0H538.436L582.332 74.2931ZM507.082 49.5284H557.248L532.165 6.19077L507.082 49.5284Z" stroke="#5B5B5B"/>
<path d="M29.0454 117.418C32.5259 117.418 35.4578 117.578 37.8401 117.895C40.2392 118.197 42.1653 118.807 43.6183 119.727C45.0883 120.632 46.1523 121.973 46.8113 123.75C47.4703 125.511 47.8005 127.852 47.8005 130.771H42.9341C42.9341 128.471 42.7143 126.686 42.2751 125.417C41.8358 124.132 41.0924 123.203 40.0451 122.632C39.0144 122.061 37.6027 121.711 35.8117 121.584C34.0208 121.441 31.7654 121.369 29.0454 121.369H18.8313C16.4151 121.369 14.3789 121.441 12.723 121.584C11.0674 121.711 9.71583 122.02 8.66831 122.512C7.63763 122.988 6.8434 123.75 6.28581 124.798C5.7452 125.845 5.37302 127.272 5.17027 129.081C4.96752 130.89 4.86634 133.191 4.86633 135.984V136.936C4.86634 139.633 4.96752 141.871 5.17027 143.648C5.37304 145.425 5.74517 146.845 6.28581 147.908C6.84339 148.971 7.63769 149.764 8.66831 150.288C9.71587 150.811 11.0673 151.153 12.723 151.312C14.3789 151.47 16.4151 151.549 18.8313 151.549H29.0454C31.7654 151.549 34.0208 151.494 35.8117 151.383C37.6027 151.272 39.0144 150.947 40.0451 150.407C41.0925 149.868 41.8358 148.971 42.2751 147.718C42.7144 146.448 42.9341 144.671 42.9341 142.386H47.8005C47.8005 145.305 47.4702 147.638 46.8113 149.383C46.1524 151.129 45.0882 152.446 43.6183 153.334C42.1653 154.207 40.2392 154.787 37.8401 155.072C35.4578 155.358 32.5259 155.5 29.0454 155.5H18.8313C15.0297 155.5 11.9037 155.254 9.45378 154.762C7.00404 154.286 5.08616 153.398 3.70068 152.097C2.33206 150.796 1.3681 148.923 0.810515 146.48C0.269855 144.036 1.03284e-05 140.855 0 136.936V135.984C6.42476e-06 132.747 0.168698 130.034 0.506572 127.844C0.844498 125.639 1.42823 123.845 2.25614 122.465C3.08407 121.085 4.20741 120.029 5.62672 119.299C7.06281 118.569 8.86222 118.077 11.0247 117.824C13.1874 117.554 15.7899 117.418 18.8313 117.418H29.0454Z" stroke="#5B5B5B"/>
<path d="M382.898 117.418C386.379 117.418 389.311 117.578 391.693 117.895C394.092 118.197 396.019 118.807 397.472 119.727C398.942 120.632 400.006 121.973 400.665 123.75C401.324 125.511 401.653 127.852 401.653 130.771H396.788C396.788 128.471 396.568 126.686 396.129 125.417C395.69 124.131 394.946 123.203 393.898 122.632C392.867 122.061 391.457 121.711 389.666 121.584C387.875 121.441 385.619 121.369 382.898 121.369H372.685C370.269 121.369 368.233 121.441 366.577 121.584C364.921 121.711 363.569 122.02 362.521 122.512C361.491 122.988 360.696 123.75 360.139 124.798C359.598 125.845 359.227 127.273 359.024 129.081C358.821 130.89 358.719 133.191 358.719 135.984V136.936C358.719 139.633 358.821 141.871 359.024 143.648C359.227 145.425 359.598 146.845 360.139 147.908C360.696 148.971 361.491 149.764 362.521 150.288C363.569 150.811 364.921 151.153 366.577 151.312C368.233 151.47 370.269 151.549 372.685 151.549H382.898C385.619 151.549 387.875 151.494 389.666 151.383C391.456 151.272 392.867 150.947 393.898 150.407C394.946 149.868 395.69 148.971 396.129 147.718C396.568 146.448 396.788 144.671 396.788 142.386H401.653C401.653 145.305 401.324 147.638 400.665 149.383C400.006 151.128 398.942 152.446 397.472 153.334C396.019 154.207 394.092 154.787 391.693 155.072C389.311 155.358 386.379 155.5 382.898 155.5H372.685C368.884 155.5 365.757 155.254 363.307 154.762C360.857 154.286 358.939 153.398 357.554 152.097C356.185 150.796 355.222 148.923 354.664 146.48C354.124 144.036 353.854 140.855 353.854 136.936V135.984C353.854 132.747 354.023 130.034 354.361 127.844C354.698 125.639 355.281 123.845 356.109 122.465C356.937 121.085 358.06 120.029 359.48 119.299C360.916 118.569 362.716 118.077 364.879 117.824C367.041 117.554 369.644 117.418 372.685 117.418H382.898Z" stroke="#5B5B5B"/>
<path d="M476.249 136.936C476.249 139.633 476.35 141.871 476.552 143.648C476.755 145.425 477.136 146.845 477.693 147.908C478.251 148.971 479.045 149.764 480.076 150.288C481.123 150.811 482.475 151.153 484.13 151.312C485.786 151.47 487.814 151.549 490.213 151.549H499.388C501.804 151.549 503.832 151.47 505.47 151.312C507.126 151.153 508.471 150.811 509.501 150.288C510.549 149.764 511.351 148.971 511.909 147.908C512.466 146.845 512.847 145.425 513.049 143.648C513.252 141.871 513.353 139.633 513.353 136.936V118.181H518.22V136.936C518.22 140.855 517.941 144.036 517.383 146.48C516.842 148.923 515.879 150.796 514.494 152.097C513.125 153.398 511.216 154.286 508.766 154.762C506.316 155.254 503.19 155.5 499.388 155.5H490.213C486.412 155.5 483.286 155.254 480.836 154.762C478.386 154.286 476.468 153.398 475.083 152.097C473.714 150.796 472.751 148.923 472.194 146.48C471.653 144.036 471.382 140.855 471.382 136.936V118.181H476.249V136.936Z" stroke="#5B5B5B"/>
<path d="M89.1016 136.079L106.945 118.181H113.433L91.5353 139.506V154.739H86.669V139.506L64.7711 118.181H71.2595L89.1016 136.079Z" stroke="#5B5B5B"/>
<path fill-rule="evenodd" clip-rule="evenodd" d="M162.946 118.181C165.886 118.181 168.294 118.443 170.17 118.966C172.062 119.474 173.457 120.386 174.352 121.703C175.265 123.004 175.72 124.853 175.72 127.249C175.72 129.407 175.188 131.192 174.123 132.604C173.059 134.016 171.428 134.794 169.232 134.937C172.104 135.207 174.174 136.174 175.442 137.84C176.709 139.49 177.343 141.569 177.343 144.076C177.343 146.25 177.072 148.035 176.531 149.431C176.007 150.828 175.12 151.914 173.87 152.692C172.619 153.453 170.921 153.985 168.776 154.287C166.647 154.588 163.986 154.739 160.792 154.739H131.925V118.181H162.946ZM136.791 150.931H160.792C163.107 150.931 165.017 150.876 166.521 150.764C168.041 150.653 169.232 150.384 170.094 149.955C170.972 149.527 171.589 148.852 171.944 147.932C172.298 146.995 172.476 145.71 172.476 144.076C172.476 142.394 172.138 141.085 171.462 140.149C170.803 139.213 169.874 138.538 168.674 138.126C167.492 137.713 166.115 137.46 164.543 137.365C162.972 137.269 161.282 137.221 159.474 137.221H136.791V150.931ZM136.791 133.414H159.474C162.093 133.414 164.239 133.326 165.912 133.152C167.584 132.977 168.826 132.461 169.637 131.604C170.448 130.747 170.854 129.296 170.854 127.249C170.854 125.646 170.609 124.472 170.119 123.726C169.646 122.981 168.835 122.505 167.686 122.298C166.537 122.092 164.957 121.988 162.946 121.988H136.791V133.414Z" stroke="#5B5B5B"/>
<path d="M234.054 121.988H200.7V134.175H232.66V137.983H200.7V150.931H234.763V154.739H195.834V118.181H234.054V121.988Z" stroke="#5B5B5B"/>
<path fill-rule="evenodd" clip-rule="evenodd" d="M277.789 118.181C281.591 118.181 284.649 118.339 286.964 118.656C289.296 118.974 291.061 119.522 292.261 120.299C293.46 121.077 294.271 122.14 294.693 123.488C295.116 124.837 295.327 126.543 295.327 128.605V129.558C295.327 131.462 295.082 133.103 294.592 134.484C294.119 135.848 293.198 136.96 291.829 137.817C290.461 138.658 288.433 139.252 285.747 139.601L294.212 154.739H289.345L281.058 139.935C280.721 139.95 280.366 139.958 279.994 139.958H256.6V154.739H251.734V118.181H277.789ZM256.6 136.007H278.118C281.007 136.007 283.28 135.921 284.936 135.746C286.608 135.556 287.834 135.23 288.611 134.77C289.405 134.31 289.912 133.659 290.132 132.818C290.352 131.977 290.461 130.89 290.461 129.558V128.605C290.461 127.098 290.309 125.908 290.005 125.035C289.7 124.162 289.092 123.52 288.18 123.108C287.267 122.695 285.908 122.433 284.1 122.322C282.292 122.195 279.876 122.132 276.851 122.132H256.6V136.007Z" stroke="#5B5B5B"/>
<path d="M425.112 150.931H455.932V154.739H420.247V118.181H425.112V150.931Z" stroke="#5B5B5B"/>
<path fill-rule="evenodd" clip-rule="evenodd" d="M567.935 118.181C570.875 118.181 573.284 118.443 575.159 118.966C577.051 119.474 578.446 120.386 579.341 121.703C580.254 123.004 580.71 124.853 580.71 127.249C580.71 129.407 580.177 131.192 579.112 132.604C578.048 134.016 576.417 134.794 574.221 134.937C577.094 135.207 579.163 136.174 580.431 137.84C581.698 139.491 582.332 141.569 582.332 144.076C582.332 146.25 582.061 148.035 581.52 149.431C580.996 150.827 580.11 151.914 578.86 152.692C577.609 153.453 575.911 153.985 573.765 154.287C571.636 154.588 568.975 154.739 565.782 154.739H536.914V118.181H567.935ZM541.78 150.931H565.782C568.096 150.931 570.006 150.876 571.51 150.764C573.03 150.653 574.221 150.384 575.083 149.955C575.961 149.527 576.578 148.852 576.933 147.932C577.287 146.995 577.465 145.71 577.465 144.076C577.465 142.394 577.127 141.085 576.451 140.149C575.792 139.213 574.863 138.538 573.663 138.126C572.481 137.713 571.104 137.46 569.532 137.365C567.961 137.269 566.271 137.221 564.463 137.221H541.78V150.931ZM541.78 133.414H564.463C567.082 133.414 569.228 133.326 570.901 133.152C572.573 132.977 573.815 132.461 574.626 131.604C575.437 130.747 575.843 129.296 575.843 127.249C575.843 125.646 575.598 124.472 575.108 123.726C574.635 122.981 573.824 122.505 572.675 122.298C571.526 122.092 569.946 121.988 567.935 121.988H541.78V133.414Z" stroke="#5B5B5B"/>
</svg>
