<svg width="593" height="705" viewBox="0 0 593 705" fill="none" xmlns="http://www.w3.org/2000/svg">
<path d="M79.9771 672.09C82.8073 672.09 85.1914 672.228 87.1286 672.502C89.0794 672.763 90.6457 673.29 91.8272 674.085C93.0226 674.867 93.8878 676.026 94.4237 677.562C94.9595 679.084 95.228 681.106 95.228 683.629H91.2709C91.2709 681.641 91.0921 680.099 90.735 679.002C90.3778 677.891 89.7732 677.089 88.9216 676.595C88.0835 676.102 86.9356 675.8 85.4792 675.69C84.0229 675.567 82.1889 675.504 79.9771 675.504H71.6713C69.7065 675.504 68.0508 675.567 66.7043 675.69C65.358 675.8 64.2589 676.067 63.4071 676.492C62.569 676.903 61.9231 677.562 61.4697 678.467C61.0301 679.372 60.7275 680.606 60.5626 682.169C60.3977 683.732 60.3155 685.721 60.3155 688.134V688.957C60.3155 691.288 60.3977 693.222 60.5626 694.758C60.7275 696.293 61.0301 697.52 61.4697 698.439C61.9231 699.358 62.569 700.043 63.4071 700.495C64.2589 700.948 65.3579 701.243 66.7043 701.38C68.0508 701.518 69.7065 701.586 71.6713 701.586H79.9771C82.1889 701.586 84.0229 701.538 85.4792 701.442C86.9356 701.346 88.0835 701.065 88.9216 700.599C89.7734 700.133 90.3778 699.358 90.735 698.275C91.0922 697.178 91.2709 695.641 91.2709 693.667H95.228C95.228 696.19 94.9595 698.206 94.4237 699.714C93.8879 701.222 93.0225 702.36 91.8272 703.128C90.6457 703.882 89.0795 704.384 87.1286 704.63C85.1914 704.877 82.8073 705 79.9771 705H71.6713C68.5799 705 66.038 704.788 64.0458 704.362C62.0538 703.951 60.4942 703.184 59.3676 702.059C58.2547 700.935 57.4708 699.317 57.0174 697.205C56.5778 695.093 56.3583 692.344 56.3583 688.957V688.134C56.3583 685.337 56.4955 682.992 56.7703 681.1C57.045 679.194 57.5197 677.644 58.1929 676.451C58.8662 675.258 59.7797 674.346 60.9338 673.715C62.1016 673.084 63.5648 672.66 65.3232 672.44C67.0819 672.207 69.1981 672.09 71.6713 672.09H79.9771Z" fill="white"/>
<path d="M367.718 672.09C370.548 672.09 372.932 672.228 374.87 672.502C376.821 672.763 378.388 673.29 379.569 674.085C380.764 674.867 381.63 676.026 382.166 677.562C382.701 679.084 382.969 681.106 382.969 683.629H379.013C379.013 681.641 378.834 680.099 378.477 679.002C378.12 677.891 377.515 677.089 376.663 676.595C375.825 676.102 374.678 675.8 373.221 675.69C371.765 675.567 369.93 675.504 367.718 675.504H359.413C357.449 675.504 355.793 675.567 354.446 675.69C353.1 675.8 352 676.067 351.148 676.492C350.31 676.903 349.664 677.562 349.211 678.467C348.771 679.372 348.469 680.606 348.305 682.169C348.14 683.732 348.057 685.721 348.057 688.134V688.957C348.057 691.288 348.14 693.222 348.305 694.758C348.469 696.293 348.771 697.52 349.211 698.439C349.664 699.358 350.31 700.043 351.148 700.495C352 700.948 353.1 701.243 354.446 701.38C355.793 701.518 357.449 701.586 359.413 701.586H367.718C369.93 701.586 371.765 701.538 373.221 701.442C374.677 701.346 375.825 701.065 376.663 700.599C377.515 700.133 378.12 699.358 378.477 698.275C378.834 697.178 379.013 695.641 379.013 693.667H382.969C382.969 696.19 382.701 698.206 382.166 699.714C381.63 701.222 380.764 702.36 379.569 703.128C378.388 703.883 376.821 704.384 374.87 704.63C372.932 704.877 370.548 705 367.718 705H359.413C356.322 705 353.779 704.788 351.787 704.362C349.795 703.951 348.235 703.184 347.109 702.059C345.996 700.935 345.213 699.317 344.759 697.205C344.32 695.093 344.1 692.344 344.1 688.957V688.134C344.1 685.337 344.237 682.992 344.512 681.1C344.787 679.194 345.261 677.644 345.934 676.451C346.607 675.258 347.521 674.346 348.675 673.715C349.843 673.084 351.307 672.66 353.065 672.44C354.824 672.207 356.94 672.09 359.413 672.09H367.718Z" fill="white"/>
<path d="M443.627 688.957C443.627 691.288 443.71 693.222 443.875 694.758C444.039 696.293 444.349 697.52 444.802 698.439C445.255 699.358 445.901 700.043 446.739 700.495C447.591 700.948 448.69 701.243 450.037 701.38C451.383 701.518 453.032 701.586 454.983 701.586H462.444C464.408 701.586 466.057 701.518 467.39 701.38C468.736 701.243 469.829 700.948 470.667 700.495C471.519 700.043 472.172 699.358 472.625 698.439C473.078 697.52 473.388 696.293 473.553 694.758C473.717 693.222 473.8 691.288 473.8 688.957V672.749H477.757V688.957C477.757 692.344 477.53 695.093 477.077 697.205C476.637 699.317 475.854 700.935 474.727 702.059C473.614 703.184 472.062 703.951 470.069 704.362C468.077 704.788 465.535 705 462.444 705H454.983C451.892 705 449.35 704.788 447.358 704.362C445.366 703.951 443.806 703.184 442.68 702.059C441.567 700.935 440.784 699.317 440.33 697.205C439.891 695.093 439.67 692.344 439.67 688.957V672.749H443.627V688.957Z" fill="white"/>
<path d="M128.813 688.216L143.322 672.749H148.598L130.792 691.178V704.342H126.835V691.178L109.028 672.749H114.304L128.813 688.216Z" fill="white"/>
<path fill-rule="evenodd" clip-rule="evenodd" d="M188.861 672.749C191.251 672.749 193.21 672.975 194.735 673.428C196.273 673.866 197.407 674.655 198.136 675.793C198.878 676.917 199.248 678.515 199.248 680.585C199.248 682.45 198.815 683.993 197.95 685.214C197.084 686.434 195.758 687.106 193.972 687.229C196.308 687.463 197.991 688.299 199.021 689.739C200.052 691.165 200.567 692.961 200.567 695.127C200.567 697.006 200.347 698.549 199.907 699.755C199.481 700.962 198.76 701.901 197.743 702.573C196.726 703.231 195.346 703.691 193.601 703.951C191.87 704.212 189.706 704.342 187.109 704.342H163.635V672.749H188.861ZM167.592 701.052H187.109C188.992 701.052 190.544 701.003 191.767 700.907C193.004 700.812 193.972 700.578 194.673 700.208C195.387 699.838 195.888 699.255 196.177 698.459C196.465 697.65 196.61 696.539 196.61 695.127C196.61 693.674 196.335 692.543 195.785 691.734C195.25 690.925 194.494 690.342 193.518 689.985C192.557 689.629 191.437 689.41 190.159 689.327C188.882 689.245 187.508 689.204 186.037 689.204H167.592V701.052ZM167.592 685.913H186.037C188.167 685.913 189.912 685.837 191.272 685.687C192.632 685.536 193.642 685.089 194.302 684.349C194.961 683.609 195.291 682.354 195.291 680.585C195.291 679.201 195.092 678.186 194.693 677.541C194.308 676.897 193.649 676.486 192.715 676.307C191.781 676.129 190.496 676.039 188.861 676.039H167.592V685.913Z" fill="white"/>
<path d="M246.683 676.039H219.561V686.571H245.549V689.861H219.561V701.052H247.26V704.342H215.604V672.749H246.683V676.039Z" fill="white"/>
<path fill-rule="evenodd" clip-rule="evenodd" d="M282.247 672.749C285.338 672.749 287.825 672.886 289.708 673.16C291.604 673.434 293.039 673.908 294.015 674.58C294.99 675.252 295.649 676.17 295.993 677.335C296.336 678.501 296.508 679.975 296.508 681.758V682.581C296.508 684.226 296.309 685.645 295.91 686.838C295.526 688.017 294.777 688.978 293.664 689.718C292.551 690.445 290.902 690.958 288.718 691.26L295.601 704.342H291.644L284.905 691.548C284.631 691.562 284.342 691.569 284.04 691.569H265.017V704.342H261.06V672.749H282.247ZM265.017 688.154H282.515C284.864 688.154 286.712 688.08 288.058 687.929C289.418 687.764 290.415 687.483 291.047 687.085C291.693 686.688 292.105 686.125 292.284 685.398C292.462 684.672 292.551 683.733 292.551 682.581V681.758C292.551 680.455 292.427 679.426 292.18 678.672C291.933 677.918 291.438 677.363 290.696 677.007C289.954 676.65 288.849 676.424 287.379 676.328C285.909 676.218 283.944 676.163 281.484 676.163H265.017V688.154Z" fill="white"/>
<path d="M402.045 701.052H427.107V704.342H398.089V672.749H402.045V701.052Z" fill="white"/>
<path fill-rule="evenodd" clip-rule="evenodd" d="M518.184 672.749C520.575 672.749 522.533 672.975 524.058 673.428C525.597 673.866 526.731 674.655 527.459 675.793C528.201 676.917 528.572 678.515 528.572 680.585C528.571 682.45 528.138 683.993 527.273 685.214C526.407 686.434 525.081 687.106 523.295 687.229C525.631 687.463 527.314 688.299 528.345 689.739C529.375 691.165 529.891 692.961 529.891 695.127C529.891 697.006 529.67 698.549 529.231 699.755C528.805 700.962 528.084 701.901 527.067 702.573C526.051 703.231 524.669 703.691 522.924 703.951C521.193 704.212 519.029 704.342 516.433 704.342H492.958V672.749H518.184ZM496.915 701.052H516.433C518.315 701.052 519.868 701.003 521.09 700.907C522.327 700.812 523.295 700.578 523.996 700.208C524.711 699.838 525.212 699.255 525.5 698.459C525.789 697.65 525.933 696.54 525.933 695.127C525.933 693.674 525.658 692.543 525.109 691.734C524.573 690.925 523.817 690.342 522.842 689.985C521.88 689.629 520.76 689.41 519.483 689.327C518.205 689.245 516.831 689.204 515.361 689.204H496.915V701.052ZM496.915 685.913H515.361C517.49 685.913 519.235 685.837 520.595 685.687C521.956 685.536 522.965 685.089 523.625 684.349C524.284 683.609 524.614 682.354 524.614 680.585C524.614 679.201 524.415 678.186 524.016 677.541C523.632 676.897 522.973 676.486 522.038 676.307C521.104 676.129 519.819 676.039 518.184 676.039H496.915V685.913Z" fill="white"/>
<path d="M167.967 587.432C167.967 593.074 168.167 597.755 168.566 601.472C168.965 605.19 169.713 608.16 170.81 610.384C171.908 612.608 173.471 614.268 175.5 615.363C177.562 616.458 180.223 617.173 183.482 617.504C186.741 617.836 190.732 618.002 195.455 618.002H213.514C218.27 618.002 222.261 617.836 225.487 617.504C228.747 617.173 231.391 616.458 233.419 615.363C235.481 614.268 237.061 612.608 238.159 610.384C239.256 608.16 240.005 605.19 240.404 601.472C240.803 597.755 241.002 593.074 241.002 587.432V548.198H250.581V587.432C250.581 595.63 250.033 602.285 248.935 607.396C247.871 612.508 245.975 616.425 243.248 619.147C240.554 621.869 236.795 623.727 231.973 624.723C227.15 625.752 220.997 626.267 213.514 626.267H195.455C187.972 626.267 181.819 625.752 176.996 624.723C172.174 623.727 168.399 621.869 165.672 619.147C162.978 616.425 161.082 612.508 159.984 607.396C158.92 602.285 158.388 595.63 158.388 587.432V548.198H167.967V587.432Z" fill="white"/>
<path fill-rule="evenodd" clip-rule="evenodd" d="M51.285 548.198C58.7681 548.198 64.7878 548.529 69.3441 549.193C73.9338 549.857 77.4093 551.002 79.7707 552.629C82.132 554.255 83.7282 556.479 84.5596 559.3C85.3911 562.122 85.8069 565.69 85.8069 570.005V571.997C85.8069 575.98 85.3248 579.415 84.3603 582.303C83.4291 585.157 81.6167 587.481 78.9229 589.273C76.229 591.032 72.2377 592.277 66.9497 593.008L83.6118 624.674H74.0339L57.7199 593.704C57.0548 593.737 56.3564 593.755 55.6248 593.755H9.57879V624.674H0V548.198H51.285ZM9.57879 585.489H51.9335C57.6206 585.489 62.094 585.307 65.3533 584.942C68.6459 584.544 71.0574 583.863 72.5873 582.901C74.1503 581.938 75.1482 580.577 75.5806 578.818C76.0129 577.059 76.229 574.785 76.229 571.997V570.005C76.229 566.852 75.9294 564.363 75.3308 562.537C74.7321 560.711 73.5346 559.367 71.7386 558.504C69.9426 557.641 67.2651 557.093 63.7065 556.861C60.1479 556.596 55.392 556.462 49.4389 556.462H9.57879V585.489Z" fill="white"/>
<path d="M411.115 612.874H411.215V548.198H420.793V624.674H410.815L333.839 559.45H333.738V624.674H324.16V548.198H334.137L411.115 612.874Z" fill="white"/>
<path fill-rule="evenodd" clip-rule="evenodd" d="M593 624.674H581.825L572.247 607.148H511.583L502.005 624.674H490.83L535.529 548.198H548.3L593 624.674ZM516.372 599.181H567.457L541.914 554.57L516.372 599.181Z" fill="white"/>
<path d="M181.511 426.408H154.532L163.11 409.207H187.568L181.511 426.408Z" fill="white"/>
<path d="M213.512 426.408H187.279L193.337 409.207H217.578L213.512 426.408Z" fill="white"/>
<path d="M361.308 409.207L365.373 426.408H219.105L223.17 409.207H361.308Z" fill="white"/>
<path d="M397.6 426.408H370.966L366.9 409.207H391.542L397.6 426.408Z" fill="white"/>
<path d="M431.77 426.408H403.369L397.311 409.207H423.192L431.77 426.408Z" fill="white"/>
<path d="M189.482 403.775H165.819L174.847 385.668H195.858L189.482 403.775Z" fill="white"/>
<path d="M218.862 403.775H195.25L201.627 385.668H223.142L218.862 403.775Z" fill="white"/>
<path d="M247.809 403.775H224.454L228.734 385.668H250.349L247.809 403.775Z" fill="white"/>
<path d="M275.023 403.775H253.304L255.844 385.668H276.053L275.023 403.775Z" fill="white"/>
<path d="M303.204 403.775H280.474L281.505 385.668H302.173L303.204 403.775Z" fill="white"/>
<path d="M331.217 403.775H308.655L307.625 385.668H328.677L331.217 403.775Z" fill="white"/>
<path d="M420.483 403.775H395.398L389.021 385.668H411.455L420.483 403.775Z" fill="white"/>
<path d="M197.771 380.236H177.556L186.586 362.13H204.148L197.771 380.236Z" fill="white"/>
<path d="M224.426 380.236H203.54L209.917 362.13H228.706L224.426 380.236Z" fill="white"/>
<path d="M251.111 380.236H230.019L234.298 362.13H253.651L251.111 380.236Z" fill="white"/>
<path d="M276.362 380.236H256.606L259.146 362.13H277.392L276.362 380.236Z" fill="white"/>
<path d="M301.863 380.236H281.815L282.845 362.13H300.833L301.863 380.236Z" fill="white"/>
<path d="M327.916 380.236H307.316L306.286 362.13H325.376L327.916 380.236Z" fill="white"/>
<path d="M354.46 380.236H333.412L330.872 362.13H350.181L354.46 380.236Z" fill="white"/>
<path d="M408.746 380.236H387.108L380.731 362.13H399.716L408.746 380.236Z" fill="white"/>
<path d="M206.061 356.698H189.294L196.969 341.307H211.481L206.061 356.698Z" fill="white"/>
<path d="M229.989 356.698H211.83L217.251 341.307H233.628L229.989 356.698Z" fill="white"/>
<path d="M254.412 356.698H235.582L239.219 341.307H256.571L254.412 356.698Z" fill="white"/>
<path d="M277.702 356.698H259.907L262.066 341.307H278.578L277.702 356.698Z" fill="white"/>
<path d="M300.523 356.698H283.155L284.031 341.307H299.647L300.523 356.698Z" fill="white"/>
<path d="M324.614 356.698H305.976L305.1 341.307H322.455L324.614 356.698Z" fill="white"/>
<path d="M348.896 356.698H330.109L327.95 341.307H345.259L348.896 356.698Z" fill="white"/>
<path d="M373.049 356.698H354.489L350.851 341.307H367.63L373.049 356.698Z" fill="white"/>
<path d="M397.008 356.698H378.819L373.398 341.307H389.333L397.008 356.698Z" fill="white"/>
<path fill-rule="evenodd" clip-rule="evenodd" d="M449.488 437.272H136.814L190.096 330.443H396.207L449.488 437.272ZM145.603 431.84H440.699L392.836 335.875H193.466L145.603 431.84Z" fill="white"/>
<path d="M293.037 197.073C304.32 197.163 315.423 199.916 325.441 205.11C335.46 210.304 344.111 217.791 350.689 226.961C357.268 236.132 361.589 246.727 363.302 257.883C364.91 268.357 364.176 279.049 361.164 289.191C363.869 293.221 365.449 298.068 365.449 303.284C365.448 315.574 356.683 325.82 345.052 328.139L328.755 280.574C332.157 278.885 335.992 277.935 340.049 277.935C346.491 277.935 352.372 280.33 356.85 284.274C358.859 275.919 359.232 267.234 357.922 258.706C356.339 248.393 352.344 238.599 346.264 230.124C340.183 221.648 332.189 214.729 322.933 209.93C313.676 205.131 303.418 202.587 292.994 202.504C282.57 202.422 272.273 204.804 262.941 209.456C253.61 214.108 245.508 220.9 239.294 229.278C233.081 237.656 228.933 247.385 227.186 257.672C225.704 266.403 225.99 275.327 228.006 283.917C232.429 280.185 238.148 277.935 244.393 277.935C248.451 277.935 252.285 278.885 255.687 280.574L239.391 328.139C227.759 325.82 218.994 315.574 218.994 303.284C218.994 297.847 220.709 292.809 223.629 288.682C220.635 278.32 220.013 267.41 221.82 256.765C223.709 245.637 228.197 235.111 234.92 226.046C241.643 216.981 250.41 209.631 260.509 204.596C270.608 199.561 281.753 196.984 293.037 197.073Z" fill="white"/>
<path fill-rule="evenodd" clip-rule="evenodd" d="M324.103 265.721L319.896 301.647L319.561 301.98L303.624 317.886L296.122 316.367L268.971 311.249L261.949 284.617L261.824 284.147L288.755 225.677L324.103 265.721ZM297.424 313.859L302.732 314.934L315.314 302.378H293.709L297.424 313.859ZM273.423 309.324L294.374 313.273L290.849 302.378H283.027L273.423 309.324ZM269.863 303.961L270.878 307.81L280.4 300.924L274.832 296.098L269.863 303.961ZM268.916 300.369L272.753 294.296L265.703 288.184L268.916 300.369ZM276.301 293.773L283.095 299.662H290.144L287.115 286.062L281.242 285.955L276.301 293.773ZM289.687 285.101L292.93 299.662H315.841L297.665 276.002L289.687 285.101ZM300.004 274.581L317.636 297.535L321.087 268.078L300.004 274.581ZM274.223 291.971L278.06 285.898L266.985 285.697L274.223 291.971ZM274.703 262.689L281.49 283.244L287.603 283.355L296.259 273.48L289.787 243.767L284 242.503L274.703 262.689ZM265.371 282.951L278.607 283.191L273.033 266.313L265.371 282.951ZM298.75 272.126L320.27 265.488L301.289 243.985H292.62L298.75 272.126ZM293.134 241.269H298.892L295.218 237.107L293.134 241.269ZM285.164 239.976L290.188 241.074L293.277 234.908L289.48 230.607L285.164 239.976Z" fill="white"/>
<path fill-rule="evenodd" clip-rule="evenodd" d="M527.415 468.053H58.984L293.2 63.3745L527.415 468.053ZM295.921 186.59C294.627 186.529 293.326 186.497 292.017 186.497C291.503 186.497 290.99 186.503 290.478 186.513V78.9365L257.134 136.549L268.451 189.943C266.695 190.471 264.964 191.056 263.259 191.696L253.062 143.583L231.825 180.277L242.149 203.46C240.656 204.611 239.203 205.811 237.795 207.06L228.459 186.094L214.45 210.297L223.794 223.206C222.713 224.844 221.688 226.524 220.725 228.242L211.467 215.451L200.024 235.222L213.112 246.986C212.58 248.984 212.122 251.011 211.741 253.066L197.241 240.031L185.916 259.598L210.634 274.465C210.817 276.775 211.095 279.057 211.467 281.308L183.193 264.302L172.16 283.365L211.744 296.105C211.314 297.865 211.032 299.682 210.906 301.542L169.376 288.176L157.812 308.156L212.501 313.98C213.178 315.99 214.05 317.91 215.092 319.72L154.833 313.302L140.026 338.887L182.503 334.363L179.582 340.138L136.656 344.709L116.746 379.112L168.257 362.532L164.81 369.35L112.685 386.126L71.3347 457.572L141.554 415.336L136.945 424.451L73.4864 462.621H133.409L155.565 442.704H163.699L141.542 462.621H189.304L203.721 442.704H210.435L196.018 462.621H228.84L237.71 442.704H243.665L234.796 462.621H260.152L264.374 442.704H269.936L265.714 462.621H290.478V442.704H295.921V462.621H320.685L316.463 442.704H322.026L326.248 462.621H351.604L342.734 442.704H348.69L357.559 462.621H390.381L375.964 442.704H382.679L397.095 462.621H444.858L422.701 442.704H430.835L452.991 462.621H512.913L449.314 424.367L444.705 415.252L515.064 457.572L473.714 386.126L421.473 369.313L418.025 362.495L469.654 379.112L449.743 344.709L406.713 340.126L403.793 334.353L446.373 338.887L431.566 313.302L369.753 319.885C370.809 318.075 371.693 316.153 372.383 314.141L428.586 308.156L417.022 288.176L374.064 302.002C373.965 300.135 373.703 298.31 373.297 296.541L414.238 283.365L403.206 264.302L372.29 282.897C372.713 280.619 373.039 278.308 373.267 275.967L400.483 259.598L389.158 240.031L372.611 254.905C372.273 252.815 371.857 250.751 371.363 248.717L386.374 235.222L374.932 215.451L364.323 230.108C363.394 228.345 362.403 226.62 361.352 224.937L371.948 210.297L357.94 186.094L347.919 208.596C346.535 207.297 345.105 206.047 343.633 204.846L354.574 180.277L333.336 143.583L322.958 192.551C321.266 191.859 319.545 191.224 317.799 190.644L329.265 136.549L295.921 78.9365V186.59Z" fill="white"/>
<path fill-rule="evenodd" clip-rule="evenodd" d="M583.834 502.089H2.92156L293.378 0L583.834 502.089ZM12.348 496.657H574.408L293.378 10.863L12.348 496.657Z" fill="white"/>
<path d="M336.713 403.775L334.173 385.668H361.336L355.772 362.13H374.963L389.629 403.775H336.713Z" fill="white"/>
<path d="M79.9771 672.09C82.8073 672.09 85.1914 672.228 87.1286 672.502C89.0794 672.763 90.6457 673.29 91.8272 674.085C93.0226 674.867 93.8878 676.026 94.4237 677.562C94.9595 679.084 95.228 681.106 95.228 683.629H91.2709C91.2709 681.641 91.0921 680.099 90.735 679.002C90.3778 677.891 89.7732 677.089 88.9216 676.595C88.0835 676.102 86.9356 675.8 85.4792 675.69C84.0229 675.567 82.1889 675.504 79.9771 675.504H71.6713C69.7065 675.504 68.0508 675.567 66.7043 675.69C65.358 675.8 64.2589 676.067 63.4071 676.492C62.569 676.903 61.9231 677.562 61.4697 678.467C61.0301 679.372 60.7275 680.606 60.5626 682.169C60.3977 683.732 60.3155 685.721 60.3155 688.134V688.957C60.3155 691.288 60.3977 693.222 60.5626 694.758C60.7275 696.293 61.0301 697.52 61.4697 698.439C61.9231 699.358 62.569 700.043 63.4071 700.495C64.2589 700.948 65.3579 701.243 66.7043 701.38C68.0508 701.518 69.7065 701.586 71.6713 701.586H79.9771C82.1889 701.586 84.0229 701.538 85.4792 701.442C86.9356 701.346 88.0835 701.065 88.9216 700.599C89.7734 700.133 90.3778 699.358 90.735 698.275C91.0922 697.178 91.2709 695.641 91.2709 693.667H95.228C95.228 696.19 94.9595 698.206 94.4237 699.714C93.8879 701.222 93.0225 702.36 91.8272 703.128C90.6457 703.882 89.0795 704.384 87.1286 704.63C85.1914 704.877 82.8073 705 79.9771 705H71.6713C68.5799 705 66.038 704.788 64.0458 704.362C62.0538 703.951 60.4942 703.184 59.3676 702.059C58.2547 700.935 57.4708 699.317 57.0174 697.205C56.5778 695.093 56.3583 692.344 56.3583 688.957V688.134C56.3583 685.337 56.4955 682.992 56.7703 681.1C57.045 679.194 57.5197 677.644 58.1929 676.451C58.8662 675.258 59.7797 674.346 60.9338 673.715C62.1016 673.084 63.5648 672.66 65.3232 672.44C67.0819 672.207 69.1981 672.09 71.6713 672.09H79.9771Z" stroke="#5B5B5B"/>
<path d="M367.718 672.09C370.548 672.09 372.932 672.228 374.87 672.502C376.821 672.763 378.388 673.29 379.569 674.085C380.764 674.867 381.63 676.026 382.166 677.562C382.701 679.084 382.969 681.106 382.969 683.629H379.013C379.013 681.641 378.834 680.099 378.477 679.002C378.12 677.891 377.515 677.089 376.663 676.595C375.825 676.102 374.678 675.8 373.221 675.69C371.765 675.567 369.93 675.504 367.718 675.504H359.413C357.449 675.504 355.793 675.567 354.446 675.69C353.1 675.8 352 676.067 351.148 676.492C350.31 676.903 349.664 677.562 349.211 678.467C348.771 679.372 348.469 680.606 348.305 682.169C348.14 683.732 348.057 685.721 348.057 688.134V688.957C348.057 691.288 348.14 693.222 348.305 694.758C348.469 696.293 348.771 697.52 349.211 698.439C349.664 699.358 350.31 700.043 351.148 700.495C352 700.948 353.1 701.243 354.446 701.38C355.793 701.518 357.449 701.586 359.413 701.586H367.718C369.93 701.586 371.765 701.538 373.221 701.442C374.677 701.346 375.825 701.065 376.663 700.599C377.515 700.133 378.12 699.358 378.477 698.275C378.834 697.178 379.013 695.641 379.013 693.667H382.969C382.969 696.19 382.701 698.206 382.166 699.714C381.63 701.222 380.764 702.36 379.569 703.128C378.388 703.883 376.821 704.384 374.87 704.63C372.932 704.877 370.548 705 367.718 705H359.413C356.322 705 353.779 704.788 351.787 704.362C349.795 703.951 348.235 703.184 347.109 702.059C345.996 700.935 345.213 699.317 344.759 697.205C344.32 695.093 344.1 692.344 344.1 688.957V688.134C344.1 685.337 344.237 682.992 344.512 681.1C344.787 679.194 345.261 677.644 345.934 676.451C346.607 675.258 347.521 674.346 348.675 673.715C349.843 673.084 351.307 672.66 353.065 672.44C354.824 672.207 356.94 672.09 359.413 672.09H367.718Z" stroke="#5B5B5B"/>
<path d="M443.627 688.957C443.627 691.288 443.71 693.222 443.875 694.758C444.039 696.293 444.349 697.52 444.802 698.439C445.255 699.358 445.901 700.043 446.739 700.495C447.591 700.948 448.69 701.243 450.037 701.38C451.383 701.518 453.032 701.586 454.983 701.586H462.444C464.408 701.586 466.057 701.518 467.39 701.38C468.736 701.243 469.829 700.948 470.667 700.495C471.519 700.043 472.172 699.358 472.625 698.439C473.078 697.52 473.388 696.293 473.553 694.758C473.717 693.222 473.8 691.288 473.8 688.957V672.749H477.757V688.957C477.757 692.344 477.53 695.093 477.077 697.205C476.637 699.317 475.854 700.935 474.727 702.059C473.614 703.184 472.062 703.951 470.069 704.362C468.077 704.788 465.535 705 462.444 705H454.983C451.892 705 449.35 704.788 447.358 704.362C445.366 703.951 443.806 703.184 442.68 702.059C441.567 700.935 440.784 699.317 440.33 697.205C439.891 695.093 439.67 692.344 439.67 688.957V672.749H443.627V688.957Z" stroke="#5B5B5B"/>
<path d="M128.813 688.216L143.322 672.749H148.598L130.792 691.178V704.342H126.835V691.178L109.028 672.749H114.304L128.813 688.216Z" stroke="#5B5B5B"/>
<path fill-rule="evenodd" clip-rule="evenodd" d="M188.861 672.749C191.251 672.749 193.21 672.975 194.735 673.428C196.273 673.866 197.407 674.655 198.136 675.793C198.878 676.917 199.248 678.515 199.248 680.585C199.248 682.45 198.815 683.993 197.95 685.214C197.084 686.434 195.758 687.106 193.972 687.229C196.308 687.463 197.991 688.299 199.021 689.739C200.052 691.165 200.567 692.961 200.567 695.127C200.567 697.006 200.347 698.549 199.907 699.755C199.481 700.962 198.76 701.901 197.743 702.573C196.726 703.231 195.346 703.691 193.601 703.951C191.87 704.212 189.706 704.342 187.109 704.342H163.635V672.749H188.861ZM167.592 701.052H187.109C188.992 701.052 190.544 701.003 191.767 700.907C193.004 700.812 193.972 700.578 194.673 700.208C195.387 699.838 195.888 699.255 196.177 698.459C196.465 697.65 196.61 696.539 196.61 695.127C196.61 693.674 196.335 692.543 195.785 691.734C195.25 690.925 194.494 690.342 193.518 689.985C192.557 689.629 191.437 689.41 190.159 689.327C188.882 689.245 187.508 689.204 186.037 689.204H167.592V701.052ZM167.592 685.913H186.037C188.167 685.913 189.912 685.837 191.272 685.687C192.632 685.536 193.642 685.089 194.302 684.349C194.961 683.609 195.291 682.354 195.291 680.585C195.291 679.201 195.092 678.186 194.693 677.541C194.308 676.897 193.649 676.486 192.715 676.307C191.781 676.129 190.496 676.039 188.861 676.039H167.592V685.913Z" stroke="#5B5B5B"/>
<path d="M246.683 676.039H219.561V686.571H245.549V689.861H219.561V701.052H247.26V704.342H215.604V672.749H246.683V676.039Z" stroke="#5B5B5B"/>
<path fill-rule="evenodd" clip-rule="evenodd" d="M282.247 672.749C285.338 672.749 287.825 672.886 289.708 673.16C291.604 673.434 293.039 673.908 294.015 674.58C294.99 675.252 295.649 676.17 295.993 677.335C296.336 678.501 296.508 679.975 296.508 681.758V682.581C296.508 684.226 296.309 685.645 295.91 686.838C295.526 688.017 294.777 688.978 293.664 689.718C292.551 690.445 290.902 690.958 288.718 691.26L295.601 704.342H291.644L284.905 691.548C284.631 691.562 284.342 691.569 284.04 691.569H265.017V704.342H261.06V672.749H282.247ZM265.017 688.154H282.515C284.864 688.154 286.712 688.08 288.058 687.929C289.418 687.764 290.415 687.483 291.047 687.085C291.693 686.688 292.105 686.125 292.284 685.398C292.462 684.672 292.551 683.733 292.551 682.581V681.758C292.551 680.455 292.427 679.426 292.18 678.672C291.933 677.918 291.438 677.363 290.696 677.007C289.954 676.65 288.849 676.424 287.379 676.328C285.909 676.218 283.944 676.163 281.484 676.163H265.017V688.154Z" stroke="#5B5B5B"/>
<path d="M402.045 701.052H427.107V704.342H398.089V672.749H402.045V701.052Z" stroke="#5B5B5B"/>
<path fill-rule="evenodd" clip-rule="evenodd" d="M518.184 672.749C520.575 672.749 522.533 672.975 524.058 673.428C525.597 673.866 526.731 674.655 527.459 675.793C528.201 676.917 528.572 678.515 528.572 680.585C528.571 682.45 528.138 683.993 527.273 685.214C526.407 686.434 525.081 687.106 523.295 687.229C525.631 687.463 527.314 688.299 528.345 689.739C529.375 691.165 529.891 692.961 529.891 695.127C529.891 697.006 529.67 698.549 529.231 699.755C528.805 700.962 528.084 701.901 527.067 702.573C526.051 703.231 524.669 703.691 522.924 703.951C521.193 704.212 519.029 704.342 516.433 704.342H492.958V672.749H518.184ZM496.915 701.052H516.433C518.315 701.052 519.868 701.003 521.09 700.907C522.327 700.812 523.295 700.578 523.996 700.208C524.711 699.838 525.212 699.255 525.5 698.459C525.789 697.65 525.933 696.54 525.933 695.127C525.933 693.674 525.658 692.543 525.109 691.734C524.573 690.925 523.817 690.342 522.842 689.985C521.88 689.629 520.76 689.41 519.483 689.327C518.205 689.245 516.831 689.204 515.361 689.204H496.915V701.052ZM496.915 685.913H515.361C517.49 685.913 519.235 685.837 520.595 685.687C521.956 685.536 522.965 685.089 523.625 684.349C524.284 683.609 524.614 682.354 524.614 680.585C524.614 679.201 524.415 678.186 524.016 677.541C523.632 676.897 522.973 676.486 522.038 676.307C521.104 676.129 519.819 676.039 518.184 676.039H496.915V685.913Z" stroke="#5B5B5B"/>
<path d="M167.967 587.432C167.967 593.074 168.167 597.755 168.566 601.472C168.965 605.19 169.713 608.16 170.81 610.384C171.908 612.608 173.471 614.268 175.5 615.363C177.562 616.458 180.223 617.173 183.482 617.504C186.741 617.836 190.732 618.002 195.455 618.002H213.514C218.27 618.002 222.261 617.836 225.487 617.504C228.747 617.173 231.391 616.458 233.419 615.363C235.481 614.268 237.061 612.608 238.159 610.384C239.256 608.16 240.005 605.19 240.404 601.472C240.803 597.755 241.002 593.074 241.002 587.432V548.198H250.581V587.432C250.581 595.63 250.033 602.285 248.935 607.396C247.871 612.508 245.975 616.425 243.248 619.147C240.554 621.869 236.795 623.727 231.973 624.723C227.15 625.752 220.997 626.267 213.514 626.267H195.455C187.972 626.267 181.819 625.752 176.996 624.723C172.174 623.727 168.399 621.869 165.672 619.147C162.978 616.425 161.082 612.508 159.984 607.396C158.92 602.285 158.388 595.63 158.388 587.432V548.198H167.967V587.432Z" stroke="#5B5B5B"/>
<path fill-rule="evenodd" clip-rule="evenodd" d="M51.285 548.198C58.7681 548.198 64.7878 548.529 69.3441 549.193C73.9338 549.857 77.4093 551.002 79.7707 552.629C82.132 554.255 83.7282 556.479 84.5596 559.3C85.3911 562.122 85.8069 565.69 85.8069 570.005V571.997C85.8069 575.98 85.3248 579.415 84.3603 582.303C83.4291 585.157 81.6167 587.481 78.9229 589.273C76.229 591.032 72.2377 592.277 66.9497 593.008L83.6118 624.674H74.0339L57.7199 593.704C57.0548 593.737 56.3564 593.755 55.6248 593.755H9.57879V624.674H0V548.198H51.285ZM9.57879 585.489H51.9335C57.6206 585.489 62.094 585.307 65.3533 584.942C68.6459 584.544 71.0574 583.863 72.5873 582.901C74.1503 581.938 75.1482 580.577 75.5806 578.818C76.0129 577.059 76.229 574.785 76.229 571.997V570.005C76.229 566.852 75.9294 564.363 75.3308 562.537C74.7321 560.711 73.5346 559.367 71.7386 558.504C69.9426 557.641 67.2651 557.093 63.7065 556.861C60.1479 556.596 55.392 556.462 49.4389 556.462H9.57879V585.489Z" stroke="#5B5B5B"/>
<path d="M411.115 612.874H411.215V548.198H420.793V624.674H410.815L333.839 559.45H333.738V624.674H324.16V548.198H334.137L411.115 612.874Z" stroke="#5B5B5B"/>
<path fill-rule="evenodd" clip-rule="evenodd" d="M593 624.674H581.825L572.247 607.148H511.583L502.005 624.674H490.83L535.529 548.198H548.3L593 624.674ZM516.372 599.181H567.457L541.914 554.57L516.372 599.181Z" stroke="#5B5B5B"/>
<path d="M181.511 426.408H154.532L163.11 409.207H187.568L181.511 426.408Z" stroke="#5B5B5B"/>
<path d="M213.512 426.408H187.279L193.337 409.207H217.578L213.512 426.408Z" stroke="#5B5B5B"/>
<path d="M361.308 409.207L365.373 426.408H219.105L223.17 409.207H361.308Z" stroke="#5B5B5B"/>
<path d="M397.6 426.408H370.966L366.9 409.207H391.542L397.6 426.408Z" stroke="#5B5B5B"/>
<path d="M431.77 426.408H403.369L397.311 409.207H423.192L431.77 426.408Z" stroke="#5B5B5B"/>
<path d="M189.482 403.775H165.819L174.847 385.668H195.858L189.482 403.775Z" stroke="#5B5B5B"/>
<path d="M218.862 403.775H195.25L201.627 385.668H223.142L218.862 403.775Z" stroke="#5B5B5B"/>
<path d="M247.809 403.775H224.454L228.734 385.668H250.349L247.809 403.775Z" stroke="#5B5B5B"/>
<path d="M275.023 403.775H253.304L255.844 385.668H276.053L275.023 403.775Z" stroke="#5B5B5B"/>
<path d="M303.204 403.775H280.474L281.505 385.668H302.173L303.204 403.775Z" stroke="#5B5B5B"/>
<path d="M331.217 403.775H308.655L307.625 385.668H328.677L331.217 403.775Z" stroke="#5B5B5B"/>
<path d="M420.483 403.775H395.398L389.021 385.668H411.455L420.483 403.775Z" stroke="#5B5B5B"/>
<path d="M197.771 380.236H177.556L186.586 362.13H204.148L197.771 380.236Z" stroke="#5B5B5B"/>
<path d="M224.426 380.236H203.54L209.917 362.13H228.706L224.426 380.236Z" stroke="#5B5B5B"/>
<path d="M251.111 380.236H230.019L234.298 362.13H253.651L251.111 380.236Z" stroke="#5B5B5B"/>
<path d="M276.362 380.236H256.606L259.146 362.13H277.392L276.362 380.236Z" stroke="#5B5B5B"/>
<path d="M301.863 380.236H281.815L282.845 362.13H300.833L301.863 380.236Z" stroke="#5B5B5B"/>
<path d="M327.916 380.236H307.316L306.286 362.13H325.376L327.916 380.236Z" stroke="#5B5B5B"/>
<path d="M354.46 380.236H333.412L330.872 362.13H350.181L354.46 380.236Z" stroke="#5B5B5B"/>
<path d="M408.746 380.236H387.108L380.731 362.13H399.716L408.746 380.236Z" stroke="#5B5B5B"/>
<path d="M206.061 356.698H189.294L196.969 341.307H211.481L206.061 356.698Z" stroke="#5B5B5B"/>
<path d="M229.989 356.698H211.83L217.251 341.307H233.628L229.989 356.698Z" stroke="#5B5B5B"/>
<path d="M254.412 356.698H235.582L239.219 341.307H256.571L254.412 356.698Z" stroke="#5B5B5B"/>
<path d="M277.702 356.698H259.907L262.066 341.307H278.578L277.702 356.698Z" stroke="#5B5B5B"/>
<path d="M300.523 356.698H283.155L284.031 341.307H299.647L300.523 356.698Z" stroke="#5B5B5B"/>
<path d="M324.614 356.698H305.976L305.1 341.307H322.455L324.614 356.698Z" stroke="#5B5B5B"/>
<path d="M348.896 356.698H330.109L327.95 341.307H345.259L348.896 356.698Z" stroke="#5B5B5B"/>
<path d="M373.049 356.698H354.489L350.851 341.307H367.63L373.049 356.698Z" stroke="#5B5B5B"/>
<path d="M397.008 356.698H378.819L373.398 341.307H389.333L397.008 356.698Z" stroke="#5B5B5B"/>
<path fill-rule="evenodd" clip-rule="evenodd" d="M449.488 437.272H136.814L190.096 330.443H396.207L449.488 437.272ZM145.603 431.84H440.699L392.836 335.875H193.466L145.603 431.84Z" stroke="#5B5B5B"/>
<path d="M293.037 197.073C304.32 197.163 315.423 199.916 325.441 205.11C335.46 210.304 344.111 217.791 350.689 226.961C357.268 236.132 361.589 246.727 363.302 257.883C364.91 268.357 364.176 279.049 361.164 289.191C363.869 293.221 365.449 298.068 365.449 303.284C365.448 315.574 356.683 325.82 345.052 328.139L328.755 280.574C332.157 278.885 335.992 277.935 340.049 277.935C346.491 277.935 352.372 280.33 356.85 284.274C358.859 275.919 359.232 267.234 357.922 258.706C356.339 248.393 352.344 238.599 346.264 230.124C340.183 221.648 332.189 214.729 322.933 209.93C313.676 205.131 303.418 202.587 292.994 202.504C282.57 202.422 272.273 204.804 262.941 209.456C253.61 214.108 245.508 220.9 239.294 229.278C233.081 237.656 228.933 247.385 227.186 257.672C225.704 266.403 225.99 275.327 228.006 283.917C232.429 280.185 238.148 277.935 244.393 277.935C248.451 277.935 252.285 278.885 255.687 280.574L239.391 328.139C227.759 325.82 218.994 315.574 218.994 303.284C218.994 297.847 220.709 292.809 223.629 288.682C220.635 278.32 220.013 267.41 221.82 256.765C223.709 245.637 228.197 235.111 234.92 226.046C241.643 216.981 250.41 209.631 260.509 204.596C270.608 199.561 281.753 196.984 293.037 197.073Z" stroke="#5B5B5B"/>
<path fill-rule="evenodd" clip-rule="evenodd" d="M324.103 265.721L319.896 301.647L319.561 301.98L303.624 317.886L296.122 316.367L268.971 311.249L261.949 284.617L261.824 284.147L288.755 225.677L324.103 265.721ZM297.424 313.859L302.732 314.934L315.314 302.378H293.709L297.424 313.859ZM273.423 309.324L294.374 313.273L290.849 302.378H283.027L273.423 309.324ZM269.863 303.961L270.878 307.81L280.4 300.924L274.832 296.098L269.863 303.961ZM268.916 300.369L272.753 294.296L265.703 288.184L268.916 300.369ZM276.301 293.773L283.095 299.662H290.144L287.115 286.062L281.242 285.955L276.301 293.773ZM289.687 285.101L292.93 299.662H315.841L297.665 276.002L289.687 285.101ZM300.004 274.581L317.636 297.535L321.087 268.078L300.004 274.581ZM274.223 291.971L278.06 285.898L266.985 285.697L274.223 291.971ZM274.703 262.689L281.49 283.244L287.603 283.355L296.259 273.48L289.787 243.767L284 242.503L274.703 262.689ZM265.371 282.951L278.607 283.191L273.033 266.313L265.371 282.951ZM298.75 272.126L320.27 265.488L301.289 243.985H292.62L298.75 272.126ZM293.134 241.269H298.892L295.218 237.107L293.134 241.269ZM285.164 239.976L290.188 241.074L293.277 234.908L289.48 230.607L285.164 239.976Z" stroke="#5B5B5B"/>
<path fill-rule="evenodd" clip-rule="evenodd" d="M527.415 468.053H58.984L293.2 63.3745L527.415 468.053ZM295.921 186.59C294.627 186.529 293.326 186.497 292.017 186.497C291.503 186.497 290.99 186.503 290.478 186.513V78.9365L257.134 136.549L268.451 189.943C266.695 190.471 264.964 191.056 263.259 191.696L253.062 143.583L231.825 180.277L242.149 203.46C240.656 204.611 239.203 205.811 237.795 207.06L228.459 186.094L214.45 210.297L223.794 223.206C222.713 224.844 221.688 226.524 220.725 228.242L211.467 215.451L200.024 235.222L213.112 246.986C212.58 248.984 212.122 251.011 211.741 253.066L197.241 240.031L185.916 259.598L210.634 274.465C210.817 276.775 211.095 279.057 211.467 281.308L183.193 264.302L172.16 283.365L211.744 296.105C211.314 297.865 211.032 299.682 210.906 301.542L169.376 288.176L157.812 308.156L212.501 313.98C213.178 315.99 214.05 317.91 215.092 319.72L154.833 313.302L140.026 338.887L182.503 334.363L179.582 340.138L136.656 344.709L116.746 379.112L168.257 362.532L164.81 369.35L112.685 386.126L71.3347 457.572L141.554 415.336L136.945 424.451L73.4864 462.621H133.409L155.565 442.704H163.699L141.542 462.621H189.304L203.721 442.704H210.435L196.018 462.621H228.84L237.71 442.704H243.665L234.796 462.621H260.152L264.374 442.704H269.936L265.714 462.621H290.478V442.704H295.921V462.621H320.685L316.463 442.704H322.026L326.248 462.621H351.604L342.734 442.704H348.69L357.559 462.621H390.381L375.964 442.704H382.679L397.095 462.621H444.858L422.701 442.704H430.835L452.991 462.621H512.913L449.314 424.367L444.705 415.252L515.064 457.572L473.714 386.126L421.473 369.313L418.025 362.495L469.654 379.112L449.743 344.709L406.713 340.126L403.793 334.353L446.373 338.887L431.566 313.302L369.753 319.885C370.809 318.075 371.693 316.153 372.383 314.141L428.586 308.156L417.022 288.176L374.064 302.002C373.965 300.135 373.703 298.31 373.297 296.541L414.238 283.365L403.206 264.302L372.29 282.897C372.713 280.619 373.039 278.308 373.267 275.967L400.483 259.598L389.158 240.031L372.611 254.905C372.273 252.815 371.857 250.751 371.363 248.717L386.374 235.222L374.932 215.451L364.323 230.108C363.394 228.345 362.403 226.62 361.352 224.937L371.948 210.297L357.94 186.094L347.919 208.596C346.535 207.297 345.105 206.047 343.633 204.846L354.574 180.277L333.336 143.583L322.958 192.551C321.266 191.859 319.545 191.224 317.799 190.644L329.265 136.549L295.921 78.9365V186.59Z" stroke="#5B5B5B"/>
<path fill-rule="evenodd" clip-rule="evenodd" d="M583.834 502.089H2.92156L293.378 0L583.834 502.089ZM12.348 496.657H574.408L293.378 10.863L12.348 496.657Z" stroke="#5B5B5B"/>
<path d="M336.713 403.775L334.173 385.668H361.336L355.772 362.13H374.963L389.629 403.775H336.713Z" stroke="#5B5B5B"/>
</svg>
